<?xml version="1.0" standalone="no"?>
<!DOCTYPE svg PUBLIC "-//W3C//DTD SVG 20010904//EN"
 "http://www.w3.org/TR/2001/REC-SVG-20010904/DTD/svg10.dtd">
<svg version="1.0" xmlns="http://www.w3.org/2000/svg"
 width="2143.000000pt" height="2143.000000pt" viewBox="0 0 2143.000000 2143.000000"
 preserveAspectRatio="xMidYMid meet">
<metadata>
Created by potrace 1.14, written by Peter Selinger 2001-2017
</metadata>
<g transform="translate(0.000000,2143.000000) scale(0.100000,-0.100000)"
fill="#000000" stroke="none">
<path d="M10508 21425 c-1 -1 -37 -5 -78 -8 -89 -7 -213 -23 -292 -38 -103
-18 -111 -20 -178 -34 -313 -69 -700 -218 -965 -374 -167 -97 -449 -288 -475
-320 -3 -3 -27 -24 -55 -46 -27 -22 -65 -53 -84 -70 -18 -16 -45 -41 -60 -54
-132 -118 -308 -305 -406 -431 -36 -47 -72 -92 -78 -100 -85 -106 -289 -415
-412 -625 -149 -253 -201 -349 -352 -650 -80 -159 -171 -339 -203 -400 -124
-238 -223 -431 -355 -690 -76 -148 -203 -398 -283 -555 -80 -157 -206 -402
-279 -545 -188 -368 -1337 -2666 -1525 -3050 -86 -176 -224 -457 -306 -625
-320 -653 -504 -1033 -797 -1645 -142 -296 -165 -345 -244 -508 -45 -93 -81
-170 -81 -172 0 -2 -43 -92 -95 -200 -52 -108 -95 -198 -95 -200 0 -2 -27 -61
-61 -132 -129 -271 -147 -310 -172 -363 -14 -30 -51 -109 -82 -175 -31 -66
-71 -149 -87 -185 -61 -132 -77 -167 -118 -255 -55 -117 -121 -259 -228 -490
-33 -71 -77 -166 -97 -210 -21 -44 -69 -150 -107 -235 -39 -85 -86 -188 -104
-228 -19 -41 -34 -75 -34 -77 0 -1 -20 -45 -43 -96 -48 -103 -77 -167 -113
-246 -13 -29 -36 -79 -50 -110 -15 -32 -65 -143 -111 -248 -47 -104 -93 -208
-103 -230 -78 -170 -234 -567 -283 -720 -69 -213 -142 -490 -171 -650 -3 -16
-7 -41 -10 -55 -13 -70 -36 -222 -41 -275 -4 -33 -8 -71 -10 -84 -12 -69 -20
-272 -20 -486 0 -217 3 -284 21 -480 5 -55 38 -284 48 -330 2 -11 12 -56 21
-100 183 -884 651 -1724 1311 -2355 577 -551 1310 -953 2084 -1141 125 -30
120 -29 300 -63 34 -6 164 -24 225 -31 28 -3 64 -8 80 -10 192 -25 725 -24
859 1 11 2 49 6 85 9 56 5 201 24 306 41 91 14 213 38 310 61 61 13 117 26
125 28 118 24 496 146 680 218 229 90 524 228 688 321 42 24 94 53 115 65 296
166 528 316 827 536 91 66 174 128 185 137 11 9 83 67 160 129 115 93 346 288
365 309 3 3 48 43 100 90 245 219 664 637 964 960 l68 74 107 -114 c112 -122
641 -654 751 -756 175 -162 406 -366 540 -474 30 -25 57 -47 60 -51 13 -15
339 -266 455 -349 108 -78 427 -293 500 -337 59 -36 326 -193 365 -215 54 -31
326 -167 390 -196 363 -161 792 -310 1033 -358 10 -2 26 -5 35 -8 9 -3 31 -8
47 -11 68 -13 81 -16 95 -20 8 -2 31 -7 50 -10 19 -3 85 -14 145 -25 61 -10
135 -22 165 -26 30 -3 62 -8 70 -9 40 -7 164 -20 315 -32 162 -13 634 -5 723
12 9 1 46 6 82 10 36 4 72 8 80 10 8 1 40 6 70 10 30 4 64 9 75 11 11 2 58 11
105 20 251 46 610 155 803 243 25 12 48 21 51 21 3 0 31 12 63 26 32 14 72 31
88 39 403 177 776 419 1144 740 104 89 345 339 451 465 30 36 57 67 60 70 18
16 190 254 257 355 173 261 321 544 441 845 68 170 175 513 206 664 3 11 8 32
11 46 3 14 8 39 11 55 3 17 9 48 14 70 5 22 11 58 14 80 4 23 9 52 11 65 3 14
7 39 10 55 3 17 10 50 15 75 24 112 44 250 57 395 15 156 8 604 -11 725 -9 57
-17 117 -22 160 -3 25 -9 61 -14 80 -5 19 -12 55 -15 80 -10 71 -71 323 -110
455 -20 66 -37 127 -40 135 -19 71 -154 423 -210 545 -7 17 -23 54 -35 84 -11
30 -30 74 -41 97 -10 24 -19 45 -19 48 0 2 -14 35 -31 73 -16 37 -34 77 -39
88 -10 21 -15 34 -163 360 -102 225 -136 301 -172 380 -26 56 -62 135 -95 210
-24 56 -55 117 -105 215 -36 71 -94 194 -124 262 -16 37 -67 146 -266 573 -18
39 -58 126 -90 195 -31 69 -86 185 -121 258 -35 74 -64 135 -64 137 0 2 -31
69 -70 150 -38 81 -70 148 -70 150 0 1 -32 70 -71 151 -39 82 -84 176 -99 209
-15 33 -54 114 -85 180 -32 66 -73 154 -92 195 -19 41 -62 131 -95 200 -33 69
-79 166 -103 215 -24 50 -71 149 -105 220 -35 72 -84 175 -110 230 -90 190
-168 351 -255 530 -48 99 -111 230 -140 290 -79 165 -308 635 -645 1320 -204
417 -986 1980 -1195 2390 -291 572 -507 994 -651 1273 -41 78 -107 206 -148
285 -40 78 -121 234 -178 347 -58 113 -119 230 -135 260 -17 30 -110 215 -209
410 -98 195 -195 384 -215 420 -67 120 -92 165 -122 220 -17 30 -38 67 -49 82
-10 14 -18 29 -18 32 0 17 -288 469 -310 486 -3 3 -17 21 -30 40 -22 32 -137
178 -150 190 -5 5 -90 106 -125 149 -134 166 -418 435 -596 564 -309 224 -602
381 -924 493 -110 39 -307 95 -400 115 -33 7 -62 13 -65 14 -3 0 -27 4 -53 9
-27 4 -59 9 -70 12 -12 2 -60 9 -107 14 -47 6 -98 13 -115 16 -32 6 -551 14
-557 9z m437 -1419 c44 -4 91 -8 105 -10 68 -9 121 -19 178 -31 34 -8 75 -17
91 -20 71 -12 289 -93 416 -155 123 -60 342 -195 400 -247 12 -10 50 -43 85
-72 235 -198 496 -534 690 -886 18 -33 44 -80 58 -105 14 -25 52 -97 85 -160
33 -63 80 -153 105 -200 24 -47 81 -155 124 -240 44 -85 102 -195 128 -245 71
-134 237 -457 435 -845 223 -439 1507 -3006 1684 -3370 74 -151 207 -423 296
-605 89 -181 195 -397 235 -480 112 -230 235 -485 310 -640 37 -77 107 -221
155 -320 48 -99 107 -220 130 -270 23 -49 71 -148 105 -220 123 -256 193 -401
237 -494 24 -51 69 -146 100 -210 102 -213 155 -325 183 -386 15 -33 64 -136
109 -228 44 -93 81 -170 81 -172 0 -1 31 -67 69 -146 37 -79 78 -166 91 -194
13 -27 54 -115 91 -194 38 -79 69 -145 69 -147 0 -2 24 -54 54 -116 60 -127
100 -211 191 -408 63 -136 79 -170 231 -496 46 -99 84 -185 84 -191 0 -6 29
-70 64 -144 72 -150 126 -269 126 -274 0 -2 18 -43 40 -90 22 -47 40 -88 40
-90 0 -2 13 -32 29 -67 16 -35 47 -103 69 -153 22 -49 65 -142 95 -205 30 -63
87 -191 127 -285 40 -93 78 -183 85 -200 124 -284 229 -710 269 -1090 22 -205
17 -560 -9 -740 -4 -22 -8 -56 -10 -75 -3 -33 -9 -73 -20 -130 -3 -14 -7 -40
-10 -58 -3 -19 -23 -102 -44 -185 -78 -302 -186 -561 -354 -843 -57 -96 -215
-323 -250 -359 -7 -6 -30 -34 -52 -61 -40 -50 -267 -280 -340 -345 -35 -30
-188 -150 -265 -207 -136 -99 -424 -256 -610 -332 -100 -41 -286 -107 -322
-115 -9 -2 -50 -13 -90 -24 -109 -30 -268 -60 -398 -76 -170 -20 -246 -25
-415 -25 -129 -1 -238 4 -340 15 -129 13 -173 19 -295 42 -74 13 -146 27 -160
29 -63 12 -306 79 -410 113 -288 96 -644 261 -910 420 -220 132 -296 181 -437
278 -353 244 -641 479 -1028 837 -259 240 -906 902 -905 926 0 3 28 39 61 80
33 41 87 109 119 150 121 155 256 330 275 356 11 15 25 32 30 38 6 6 22 27 35
46 13 19 27 37 30 40 3 3 13 16 22 30 10 14 52 73 95 132 43 59 85 117 93 129
8 11 29 40 46 63 152 206 531 789 691 1063 75 130 129 224 148 258 357 645
629 1264 800 1820 73 238 83 275 120 430 48 198 74 327 100 495 51 333 60 459
60 840 0 429 -12 559 -77 845 -86 378 -225 721 -433 1063 -228 375 -615 781
-975 1022 -12 8 -40 27 -61 43 -21 15 -42 27 -45 27 -4 0 -22 11 -40 25 -18
14 -35 25 -38 25 -3 0 -38 19 -78 43 -157 92 -425 212 -619 277 -103 34 -306
92 -367 105 -9 2 -37 8 -62 14 -99 22 -251 46 -414 65 -205 24 -674 25 -816 2
-14 -3 -54 -7 -90 -11 -106 -10 -322 -52 -520 -100 -346 -85 -831 -307 -1140
-523 -401 -281 -742 -635 -977 -1017 -91 -147 -253 -466 -253 -496 0 -8 -4
-19 -9 -25 -11 -12 -71 -182 -110 -309 -48 -158 -101 -395 -115 -515 -2 -19
-7 -55 -10 -80 -41 -296 -41 -770 -1 -1065 3 -22 8 -62 11 -90 5 -44 46 -275
58 -330 13 -57 37 -162 40 -175 2 -8 23 -89 46 -180 53 -213 185 -642 227
-740 3 -8 7 -19 8 -25 6 -25 118 -305 162 -403 12 -29 23 -54 23 -57 0 -2 16
-39 36 -82 20 -43 43 -94 51 -113 9 -19 71 -147 138 -285 164 -335 334 -642
543 -984 52 -86 101 -168 109 -182 7 -15 20 -32 28 -39 8 -7 15 -17 15 -22 0
-5 9 -21 19 -36 10 -15 87 -129 170 -254 82 -125 170 -254 193 -287 24 -34 81
-115 128 -181 70 -99 361 -492 460 -620 62 -81 225 -286 237 -298 18 -18 16
-26 -10 -53 -13 -13 -48 -51 -77 -84 -218 -245 -627 -659 -880 -890 -272 -247
-577 -496 -820 -667 -52 -37 -99 -71 -105 -75 -13 -11 -163 -109 -253 -167
-40 -25 -76 -46 -81 -46 -5 0 -11 -4 -13 -8 -8 -22 -454 -261 -643 -345 -251
-112 -620 -233 -805 -263 -19 -3 -37 -7 -40 -9 -6 -4 -159 -31 -225 -40 -22
-3 -49 -7 -60 -10 -127 -26 -703 -27 -840 -1 -11 2 -45 7 -76 10 -31 4 -67 9
-80 11 -13 3 -37 8 -54 11 -597 108 -1154 386 -1589 794 -230 215 -423 454
-580 720 -58 98 -186 350 -186 367 0 5 -7 21 -15 37 -16 30 -101 278 -129 376
-28 95 -69 309 -81 415 -17 145 -20 222 -20 435 1 135 6 290 13 345 7 55 15
115 17 132 13 101 42 246 76 378 36 145 153 507 184 572 8 17 15 34 15 38 0 4
13 36 30 72 16 35 30 66 30 69 0 2 16 38 35 80 19 41 35 77 35 79 0 5 122 282
187 425 130 283 132 287 243 525 23 50 58 124 77 165 19 41 57 120 83 175 26
55 59 125 73 155 39 87 154 334 213 458 30 63 54 115 54 117 0 1 29 63 64 136
65 137 101 214 154 329 16 36 57 123 91 193 34 71 61 130 61 132 0 2 29 63 64
137 73 152 151 316 206 433 21 44 64 134 95 200 31 66 76 161 100 210 23 50
66 140 95 200 29 61 74 155 100 210 26 55 80 168 120 250 40 83 98 204 130
270 32 66 97 201 145 300 48 99 111 230 140 290 50 104 116 240 388 795 316
646 434 885 861 1740 427 853 556 1109 888 1760 131 255 259 504 516 1000 44
85 120 234 170 330 49 96 114 222 144 280 30 58 95 182 143 275 48 94 110 213
138 265 27 52 85 163 128 245 43 83 92 175 108 205 17 30 40 73 52 95 102 187
272 437 426 625 61 75 225 238 298 295 28 22 52 42 55 45 12 13 151 109 215
149 90 56 309 161 405 195 313 109 615 148 945 122z m25 -7789 c19 -3 62 -9
95 -12 33 -4 69 -9 80 -11 11 -3 56 -11 100 -20 335 -64 691 -230 960 -447
283 -228 539 -608 656 -972 31 -95 68 -253 74 -310 1 -11 8 -54 14 -95 23
-142 26 -195 26 -425 0 -204 -6 -322 -21 -435 -9 -67 -34 -225 -39 -250 -3
-14 -7 -37 -10 -52 -2 -15 -6 -35 -9 -45 -3 -10 -7 -29 -10 -43 -32 -184 -163
-599 -283 -905 -105 -264 -303 -687 -436 -930 -24 -44 -61 -111 -82 -150 -263
-481 -690 -1129 -1129 -1715 -195 -260 -237 -311 -247 -305 -14 9 -331 423
-429 560 -28 39 -128 177 -138 190 -4 6 -62 89 -128 185 -113 164 -182 267
-299 450 -26 41 -58 91 -70 110 -38 59 -195 321 -195 327 0 3 -8 17 -18 31
-19 27 -51 84 -125 222 -22 41 -43 80 -47 85 -17 21 -241 477 -295 600 -217
491 -389 1018 -448 1370 -32 193 -44 274 -53 380 -3 39 -7 86 -10 105 -5 40
-5 365 0 425 9 97 18 180 21 185 2 3 6 32 10 65 35 338 206 739 434 1019 252
311 611 559 1006 694 87 30 257 76 320 86 110 18 172 27 236 32 41 4 75 8 77
9 5 4 377 -3 412 -8z"/>
</g>
</svg>
